<?xml version="1.0" standalone="no"?>
<!DOCTYPE svg PUBLIC "-//W3C//DTD SVG 20010904//EN"
 "http://www.w3.org/TR/2001/REC-SVG-20010904/DTD/svg10.dtd">
<svg version="1.0" xmlns="http://www.w3.org/2000/svg"
 width="320.000000pt" height="497.000000pt" viewBox="0 0 320.000000 497.000000"
 preserveAspectRatio="xMidYMid meet">
<metadata>
Created by potrace 1.16, written by Peter Selinger 2001-2019
</metadata>
<g transform="translate(0.000000,497.000000) scale(0.100000,-0.100000)"
fill="#000000" stroke="none">
<path d="M1646 4946 c-22 -13 -48 -21 -58 -18 -19 5 -19 1 -13 -62 l7 -66 -42
0 c-37 0 -41 -2 -35 -20 5 -16 2 -20 -14 -20 -16 0 -21 -6 -21 -25 0 -18 -5
-25 -20 -25 -13 0 -20 -7 -20 -20 0 -11 -7 -20 -15 -20 -8 0 -15 -9 -15 -20 0
-19 -7 -20 -96 -20 -91 0 -96 -1 -91 -20 5 -18 -1 -19 -87 -22 -86 -3 -91 -4
-94 -25 -3 -22 -8 -23 -78 -23 -67 0 -74 -2 -74 -20 0 -11 -7 -20 -15 -20 -9
0 -15 -9 -15 -25 0 -22 -4 -25 -36 -25 -27 0 -37 -5 -41 -20 -3 -11 -12 -20
-19 -20 -8 0 -14 -10 -14 -25 0 -18 -5 -25 -20 -25 -13 0 -20 -7 -20 -20 0
-11 -7 -20 -15 -20 -9 0 -15 -9 -15 -25 0 -19 -5 -25 -21 -25 -16 0 -19 -4
-14 -20 5 -16 2 -20 -14 -20 -15 0 -21 -6 -21 -21 0 -13 -8 -23 -21 -26 -15
-4 -19 -11 -15 -27 3 -11 6 -31 6 -44 0 -19 4 -22 20 -17 16 5 20 2 20 -15 0
-13 8 -24 20 -27 16 -4 20 -14 20 -52 0 -25 3 -63 7 -84 6 -37 7 -38 42 -35
28 2 36 7 36 23 0 16 7 20 35 20 l35 0 5 -65 5 -65 36 3 36 3 6 -53 c12 -95 9
-128 -11 -128 -16 0 -17 -7 -10 -77 11 -131 11 -140 -13 -146 -18 -5 -21 -11
-15 -38 3 -17 6 -56 6 -86 0 -46 3 -56 20 -60 10 -3 22 -13 25 -23 3 -10 15
-20 25 -23 17 -4 20 -14 20 -64 0 -32 3 -82 6 -110 6 -50 6 -53 -16 -53 -17 0
-21 -4 -17 -20 4 -15 0 -20 -14 -20 -14 0 -19 -7 -19 -25 0 -16 -6 -25 -15
-25 -9 0 -15 -9 -15 -24 0 -21 -5 -25 -37 -28 -31 -2 -39 -7 -41 -25 -2 -13
-10 -23 -19 -23 -13 0 -14 -12 -9 -87 4 -49 9 -112 13 -140 5 -50 4 -53 -17
-53 -21 0 -22 -3 -16 -37 3 -21 6 -44 6 -52 0 -10 9 -12 34 -7 38 7 46 -3 46
-60 0 -32 -2 -34 -35 -34 l-35 0 0 -50 c0 -39 -3 -50 -16 -50 -14 0 -16 -11
-12 -70 3 -62 2 -70 -14 -70 -13 0 -18 -8 -18 -25 0 -24 -3 -25 -55 -25 -52 0
-55 -1 -55 -25 0 -16 -6 -25 -15 -25 -11 0 -15 -12 -15 -49 0 -46 -1 -49 -31
-55 -17 -3 -58 -6 -90 -6 -52 0 -59 2 -59 19 0 26 -8 30 -48 24 -26 -4 -32
-10 -32 -29 0 -21 -5 -24 -35 -24 -31 0 -35 -3 -35 -25 0 -20 -5 -25 -24 -25
-53 0 -86 -12 -86 -32 0 -10 -7 -21 -15 -24 -11 -4 -15 -21 -15 -56 l0 -50 58
4 c53 3 57 1 60 -19 2 -15 10 -23 23 -23 16 0 19 -7 19 -51 l0 -52 40 7 c34 5
40 4 41 -11 0 -10 4 -55 7 -99 l7 -82 -69 -5 c-37 -3 -71 -8 -73 -11 -3 -3 -2
-48 2 -101 6 -84 9 -95 26 -95 12 0 19 -7 19 -19 0 -10 3 -33 6 -50 6 -27 4
-31 -15 -31 -16 0 -21 -6 -21 -25 0 -16 -6 -25 -15 -25 -10 0 -15 -10 -15 -30
0 -21 -5 -30 -16 -30 -14 0 -16 -10 -12 -76 5 -69 3 -77 -14 -82 -17 -4 -18
-11 -12 -78 6 -65 5 -74 -10 -74 -11 0 -16 -9 -16 -30 0 -24 -4 -30 -21 -30
-15 0 -19 -5 -15 -17 2 -10 7 -57 11 -105 6 -77 5 -88 -9 -88 -13 0 -16 -11
-16 -55 0 -44 -3 -55 -16 -55 -15 0 -16 -10 -11 -76 3 -42 8 -78 11 -81 3 -3
54 -2 113 3 l107 9 -3 60 c-1 33 -4 68 -7 78 -4 12 0 17 15 17 17 0 21 6 21
30 0 20 5 30 15 30 9 0 15 9 15 24 0 13 7 26 15 30 11 4 15 20 15 55 0 34 4
51 15 55 8 3 15 16 15 30 0 15 6 26 17 28 14 2 17 12 14 50 -2 46 -2 47 31 52
18 3 51 7 73 8 34 3 40 6 38 24 -2 22 27 34 83 34 19 0 24 5 24 24 0 21 5 25
38 28 34 3 37 5 34 30 -3 24 0 27 35 30 43 3 41 -6 28 132 -6 56 -10 69 -26
73 -12 4 -19 14 -19 30 0 21 -4 24 -37 21 l-38 -3 -7 70 c-4 39 -11 117 -16
174 -7 97 -6 104 11 109 15 4 18 13 15 51 l-2 46 93 3 94 3 -6 67 c-20 222
-20 232 -3 232 13 0 16 10 16 50 0 38 4 50 15 50 9 0 15 9 15 25 0 24 2 25 76
25 l77 0 -6 75 c-6 72 -6 75 14 75 16 0 20 5 16 20 -4 15 0 20 14 20 16 0 19
7 19 50 0 39 3 50 16 50 13 0 15 9 12 50 -2 42 0 50 15 50 14 0 17 9 17 45 0
33 4 45 15 45 11 0 15 12 15 50 l0 50 55 0 c52 0 55 1 55 25 0 22 4 25 35 25
31 0 35 -3 35 -25 0 -22 4 -25 40 -25 36 0 40 -2 40 -25 0 -18 5 -25 20 -25
13 0 20 -7 20 -20 0 -13 7 -20 19 -20 15 0 19 -11 25 -61 10 -102 8 -129 -10
-129 -15 0 -16 -12 -10 -102 4 -57 9 -122 12 -144 6 -41 6 -42 55 -48 57 -8
69 -3 62 23 -4 17 1 20 34 23 32 3 38 6 37 25 0 16 5 23 18 23 13 0 18 7 18
25 0 16 6 25 15 25 9 0 15 10 15 26 0 23 3 25 37 22 24 -2 39 -8 40 -18 1 -8
5 -63 8 -122 l7 -108 39 0 c35 0 39 3 39 25 0 24 3 25 55 25 48 0 55 2 55 20
0 18 7 20 55 20 52 0 55 1 55 25 0 18 5 25 20 25 15 0 19 6 17 22 -1 17 3 23
16 22 12 -1 17 5 17 22 0 15 6 24 15 24 11 0 15 12 15 50 0 43 3 50 19 50 14
0 18 5 14 20 -4 15 0 20 16 20 16 0 21 6 21 25 0 16 6 25 15 25 9 0 15 9 15
25 0 18 5 25 20 25 13 0 20 7 20 20 0 16 7 20 35 20 31 0 35 3 35 26 0 25 1
25 53 20 47 -6 324 -26 355 -26 8 0 12 -16 12 -44 0 -46 9 -56 56 -56 19 0 24
-5 24 -25 0 -22 4 -25 40 -25 l40 0 0 45 c0 33 4 45 15 45 8 0 15 9 15 20 0
17 7 20 39 20 36 0 38 2 33 26 -4 23 -2 25 18 19 l22 -7 -6 93 c-9 128 -14
146 -37 152 -15 4 -19 14 -19 51 0 39 -3 46 -20 46 -15 0 -20 7 -20 25 0 18
-5 25 -20 25 -13 0 -20 7 -20 20 0 13 -10 24 -25 30 -15 6 -25 17 -25 29 0 10
-9 21 -20 24 -16 4 -20 14 -20 45 0 32 -4 42 -20 47 -12 4 -20 15 -20 28 0 42
-12 67 -31 67 -14 0 -19 7 -19 25 0 18 -5 25 -20 25 -17 0 -20 7 -20 44 0 34
-4 45 -18 49 -22 5 -32 45 -32 123 0 49 -3 55 -25 64 -22 9 -25 15 -25 63 0
30 -3 88 -6 130 -6 66 -10 77 -25 77 -13 0 -19 7 -19 21 0 12 -8 23 -19 26
-16 4 -21 17 -26 69 -6 54 -10 64 -26 64 -14 0 -19 7 -19 25 0 18 -5 25 -19
25 -16 0 -20 8 -23 43 -3 41 -4 42 -43 45 l-41 3 4 -40 c4 -40 4 -40 -35 -43
-30 -2 -38 -7 -38 -23 0 -13 -6 -20 -17 -19 -13 1 -18 -5 -18 -22 0 -21 -5
-24 -39 -24 -52 0 -71 8 -71 31 0 15 -9 18 -57 21 -51 3 -58 6 -61 26 -2 13
-10 22 -21 22 -16 0 -19 13 -25 113 -4 61 -9 140 -12 175 -6 58 -5 62 15 62
14 0 21 6 21 20 0 11 7 20 15 20 8 0 15 9 15 20 0 13 7 20 19 20 17 0 18 7 14
88 -6 129 -7 132 -48 132 -28 0 -35 4 -35 20 0 13 -7 20 -19 20 -16 0 -21 9
-27 45 -5 35 -10 45 -25 45 -12 0 -19 7 -19 20 0 13 -7 20 -20 20 -13 0 -20 7
-20 19 0 19 -34 31 -86 31 -20 0 -25 6 -30 40 -5 30 -11 40 -25 40 -12 0 -19
7 -19 19 0 10 -9 21 -20 24 -12 3 -20 14 -20 26 0 18 -6 21 -37 21 -22 0 -54
-10 -77 -24z"/>
</g>
</svg>
