<?xml version="1.0" standalone="no"?>
<!DOCTYPE svg PUBLIC "-//W3C//DTD SVG 20010904//EN"
 "http://www.w3.org/TR/2001/REC-SVG-20010904/DTD/svg10.dtd">
<svg version="1.0" xmlns="http://www.w3.org/2000/svg"
 width="529.000000pt" height="378.000000pt" viewBox="0 0 529.000000 378.000000"
 preserveAspectRatio="xMidYMid meet">
<metadata>
Created by potrace 1.16, written by Peter Selinger 2001-2019
</metadata>
<g transform="translate(0.000000,378.000000) scale(0.100000,-0.100000)"
fill="#000000" stroke="none">
<path d="M161 3743 c-85 -18 -156 -35 -159 -37 -2 -3 10 -25 27 -50 17 -24 31
-49 31 -55 0 -5 -13 -12 -30 -16 -17 -4 -30 -10 -30 -15 0 -5 32 -59 72 -120
l72 -111 42 7 42 6 33 -56 c19 -31 40 -56 49 -56 13 0 48 7 126 25 18 4 29 -6
60 -55 39 -59 39 -59 79 -53 40 5 41 5 79 -52 l38 -57 41 6 42 6 38 -60 39
-59 41 5 42 6 78 -121 79 -120 41 5 42 5 79 -120 c47 -72 85 -121 95 -121 9 0
57 7 106 15 130 21 125 23 169 -46 38 -59 41 -61 75 -55 20 3 59 7 86 10 l50
6 168 -256 168 -257 42 6 42 6 129 -195 c72 -107 133 -197 137 -200 9 -5 158
12 166 19 2 3 -14 33 -36 66 -23 33 -38 62 -33 64 4 3 45 7 92 11 47 4 99 9
116 12 28 5 33 1 76 -64 l47 -70 43 5 44 5 43 -66 43 -66 48 0 47 0 92 -139
c90 -136 94 -139 124 -135 44 6 388 24 453 24 l52 0 91 -134 c50 -74 91 -137
91 -140 0 -3 -18 -6 -40 -8 l-41 -3 151 -220 151 -220 50 -5 50 -5 152 -220
152 -220 93 -3 c56 -2 92 1 92 7 0 6 -21 40 -46 76 l-46 65 41 0 c23 0 41 4
41 8 0 5 -20 37 -45 73 -25 35 -45 67 -45 72 0 4 17 7 38 7 37 0 41 -3 93 -80
l54 -80 48 0 c26 0 47 2 47 5 0 3 -48 75 -107 160 l-107 155 -47 0 -46 0 -97
140 c-53 76 -96 142 -96 145 0 3 18 5 40 5 22 0 40 3 40 6 0 3 -20 34 -45 68
-25 35 -45 66 -45 70 0 3 38 6 85 6 47 0 85 3 85 6 0 3 -43 69 -95 145 l-96
139 41 0 c22 0 40 4 40 9 0 5 -40 68 -90 140 -49 72 -90 134 -90 136 0 3 18 5
40 5 22 0 40 2 40 6 0 3 -18 32 -40 65 -23 33 -38 64 -35 69 3 6 19 10 36 10
16 0 29 2 29 5 0 3 -41 66 -90 140 l-90 135 -48 0 c-46 0 -47 1 -90 63 l-43
62 36 6 c19 3 37 8 40 10 2 3 -14 32 -35 64 l-40 60 48 7 c26 3 106 7 177 7
l130 1 45 -70 45 -70 48 0 c26 0 47 2 47 6 0 3 -18 32 -40 64 -22 32 -40 61
-40 64 0 4 38 6 85 6 47 0 85 2 85 6 0 3 -18 32 -40 64 -22 32 -40 61 -40 64
0 4 39 6 88 6 l87 0 45 -70 45 -70 136 0 c75 0 138 3 141 6 3 3 -28 53 -69
112 -41 59 -82 119 -90 133 l-16 27 -193 7 -193 7 -42 64 -41 64 -94 0 -94 0
-42 65 c-43 64 -43 65 -90 65 -48 0 -48 0 -90 65 -42 64 -44 65 -88 65 -48 0
-62 10 -89 62 -8 15 -21 36 -30 45 -9 10 -22 30 -30 45 -8 15 -22 37 -33 47
-10 11 -18 24 -18 29 0 4 -8 17 -17 28 -10 10 -24 31 -32 46 -8 15 -21 36 -30
45 -9 10 -22 30 -30 45 -8 15 -22 37 -33 47 -10 11 -18 24 -18 29 0 4 -8 17
-17 28 -10 10 -24 31 -32 46 -8 15 -21 36 -30 46 -9 10 -21 27 -27 38 -9 15
-22 19 -60 19 -62 0 -376 -20 -392 -24 -2 -1 10 -20 25 -43 16 -24 35 -55 42
-70 8 -16 18 -28 23 -28 4 0 8 -7 8 -15 0 -8 5 -15 10 -15 6 0 10 -7 10 -15 0
-8 3 -15 8 -15 4 0 12 -11 18 -24 12 -27 17 -26 -196 -42 -256 -19 -300 -25
-300 -37 0 -5 11 -24 24 -41 12 -17 30 -44 39 -61 8 -16 27 -43 41 -60 14 -16
26 -35 26 -42 0 -6 5 -13 12 -15 22 -8 -3 -28 -33 -28 -27 0 -30 -3 -23 -22 3
-13 11 -24 15 -26 5 -2 9 -10 9 -18 0 -8 5 -14 10 -14 6 0 10 -6 10 -13 0 -8
9 -22 20 -32 11 -10 20 -24 20 -32 0 -7 5 -13 10 -13 6 0 10 -6 10 -12 0 -7 9
-24 20 -38 11 -14 20 -28 20 -32 0 -3 -34 -9 -75 -13 -82 -8 -94 -21 -55 -63
11 -12 20 -26 20 -32 0 -5 5 -10 10 -10 6 0 10 -6 10 -14 0 -18 -24 -23 -142
-32 -54 -4 -98 -11 -98 -16 0 -4 16 -33 37 -63 20 -31 34 -57 32 -59 -2 -2
-40 -7 -84 -10 l-80 -7 -27 40 c-16 21 -28 43 -28 49 0 17 -39 44 -57 39 -10
-3 -44 -8 -77 -12 -47 -5 -62 -3 -77 11 -10 9 -19 23 -19 31 0 7 -4 13 -10 13
-5 0 -10 7 -10 15 0 8 -4 15 -10 15 -5 0 -10 7 -10 15 0 16 -11 18 -72 15 -29
-1 -38 2 -38 14 0 9 -4 16 -10 16 -5 0 -10 6 -10 13 0 8 -9 22 -20 32 -11 10
-20 24 -20 32 0 9 -15 13 -49 13 -42 0 -51 4 -67 27 -9 15 -26 36 -36 47 -10
11 -18 25 -18 32 0 10 -13 11 -50 7 -43 -5 -51 -3 -57 13 -4 11 -15 27 -24 38
-10 10 -25 33 -33 51 -9 18 -22 38 -31 45 -8 7 -15 17 -15 22 0 5 -11 24 -25
42 -14 18 -25 38 -25 44 0 7 -4 12 -10 12 -5 0 -10 7 -10 15 0 8 -4 15 -8 15
-4 0 -23 26 -42 58 -19 31 -37 59 -41 62 -3 3 -14 19 -24 37 -18 30 -22 32
-61 26 -37 -5 -44 -3 -54 18 -7 12 -20 31 -30 41 -10 11 -28 39 -40 63 -13 25
-27 45 -32 45 -4 0 -8 5 -8 11 0 6 -11 25 -25 43 -14 18 -25 38 -25 44 0 7 -3
12 -8 12 -4 0 -18 18 -32 40 -18 29 -29 38 -45 35 -11 -3 -117 -21 -235 -40
-118 -20 -264 -45 -325 -56 -128 -23 -218 -39 -226 -39 -6 0 -93 135 -123 190
-10 19 -21 38 -25 41 -3 3 -75 -9 -160 -28z"/>
</g>
</svg>
