<?xml version="1.0" standalone="no"?>
<!DOCTYPE svg PUBLIC "-//W3C//DTD SVG 20010904//EN"
 "http://www.w3.org/TR/2001/REC-SVG-20010904/DTD/svg10.dtd">
<svg version="1.0" xmlns="http://www.w3.org/2000/svg"
 width="1076.000000pt" height="665.000000pt" viewBox="0 0 1076.000000 665.000000"
 preserveAspectRatio="xMidYMid meet">
<metadata>
Created by potrace 1.16, written by Peter Selinger 2001-2019
</metadata>
<g transform="translate(0.000000,665.000000) scale(0.100000,-0.100000)"
fill="#000000" stroke="none">
<path d="M187 6635 c-87 -7 -160 -15 -162 -17 -5 -5 -25 -215 -25 -261 l0 -40
35 6 36 6 -6 -57 c-12 -124 -25 -288 -25 -314 0 -25 3 -28 35 -28 31 0 35 -3
35 -25 0 -22 4 -25 35 -25 31 0 35 -3 35 -25 0 -22 4 -25 35 -25 32 0 35 -2
35 -30 0 -29 2 -31 38 -28 36 3 37 2 34 -26 -4 -29 -3 -29 37 -22 41 6 41 6
41 -25 l0 -32 58 6 c31 4 100 9 152 12 52 3 110 8 128 11 30 5 32 3 32 -26 l0
-31 73 6 c39 3 91 8 115 11 42 5 42 5 42 -27 0 -31 0 -31 43 -26 23 4 93 9
155 13 l112 7 0 -27 c0 -29 16 -32 118 -20 48 6 52 9 52 34 0 27 2 27 77 34
133 11 143 10 143 -19 0 -22 4 -25 40 -25 36 0 40 -2 40 -25 0 -23 4 -25 40
-25 38 0 40 -1 34 -25 -6 -24 -4 -25 35 -25 38 0 41 -2 41 -26 l0 -27 120 7
120 7 0 -26 0 -27 120 7 120 8 0 -27 c0 -24 3 -26 40 -26 36 0 40 -2 40 -25 0
-22 4 -25 40 -25 36 0 40 -2 40 -25 0 -22 4 -25 40 -25 37 0 40 -2 40 -26 l0
-27 80 6 80 6 0 -54 0 -55 40 0 40 0 0 -55 0 -55 40 0 40 0 0 -56 0 -57 41 7
41 7 -7 -117 -8 -116 42 4 41 4 0 -58 0 -58 47 7 46 6 -6 -63 c-4 -35 -7 -71
-7 -81 0 -15 -8 -19 -40 -19 l-39 0 -3 -57 -3 -58 -42 -3 c-42 -3 -43 -4 -43
-38 0 -34 0 -34 45 -34 41 0 45 -2 45 -25 0 -22 4 -25 40 -25 36 0 40 -2 40
-25 0 -23 4 -25 43 -24 23 0 79 4 125 7 l82 7 0 -29 c0 -28 1 -29 45 -24 44 5
45 5 45 -23 l0 -29 85 6 85 7 0 -28 0 -28 78 6 c42 4 121 10 175 13 l97 7 0
-28 0 -27 93 6 c50 4 109 9 130 12 36 6 37 5 37 -26 0 -31 1 -32 33 -27 17 3
78 9 135 13 l102 7 0 -28 0 -28 93 7 c50 4 111 9 135 12 42 6 42 6 42 -26 0
-29 2 -31 28 -26 15 3 54 6 87 8 59 3 60 3 63 -26 3 -28 5 -28 48 -22 44 6 44
6 44 -25 l0 -31 45 6 45 7 0 -31 c0 -31 0 -31 43 -25 l44 7 7 -72 c3 -39 4
-76 1 -81 -4 -5 -27 -9 -52 -9 l-45 0 6 -31 c3 -17 6 -71 6 -120 l0 -89 45 0
c41 0 45 -2 45 -25 0 -23 3 -25 50 -25 l50 0 0 -50 0 -50 44 0 c42 0 44 -1 50
-37 3 -21 6 -60 6 -86 l0 -48 44 6 44 7 6 -43 c3 -24 8 -100 11 -169 4 -69 8
-126 9 -127 1 -1 26 0 54 4 49 5 52 7 52 34 0 25 4 29 28 29 15 0 128 9 252
20 288 25 270 25 270 -5 0 -23 3 -25 50 -25 47 0 50 -1 50 -26 0 -26 2 -26 49
-22 l48 5 7 -66 c3 -36 6 -88 6 -114 l0 -48 49 7 c48 6 48 6 55 -26 3 -18 6
-44 6 -57 0 -24 3 -25 50 -21 50 3 50 3 50 -27 0 -66 8 -75 61 -75 46 0 49 -2
49 -25 0 -23 3 -25 49 -25 l49 0 6 -62 c4 -35 9 -85 12 -111 l6 -49 48 7 48 7
7 -69 c10 -107 9 -105 66 -97 l49 7 0 -36 c0 -19 3 -42 6 -51 5 -12 -4 -15
-43 -18 l-48 -3 3 -57 2 -58 -34 0 c-60 0 -65 -6 -59 -64 l5 -53 -62 -6 c-35
-4 -78 -7 -96 -7 -31 0 -34 -3 -34 -30 0 -24 -4 -30 -22 -30 -47 0 -67 -12
-70 -39 -3 -23 -8 -26 -45 -29 -40 -3 -43 -5 -43 -31 l0 -28 -137 -12 c-76 -6
-161 -14 -190 -17 l-52 -6 6 -52 c3 -28 9 -55 14 -60 8 -8 321 9 361 20 12 4
18 -4 23 -26 7 -31 7 -32 56 -25 48 7 49 6 49 -19 0 -24 3 -26 49 -26 54 0 53
1 66 -73 l6 -39 49 7 48 7 7 -57 8 -57 49 4 c48 3 50 2 55 -26 6 -27 7 -28 53
-22 45 6 48 5 54 -19 6 -22 11 -25 55 -25 44 0 49 -3 55 -25 6 -22 11 -25 55
-25 44 0 49 -2 55 -26 7 -25 9 -26 56 -21 l48 6 7 -37 c12 -72 12 -72 65 -72
45 0 50 -3 56 -25 6 -25 6 -25 93 -18 47 3 93 7 101 7 9 1 16 -10 18 -27 3
-26 5 -27 55 -22 133 14 253 22 260 18 4 -2 7 -13 7 -24 0 -16 7 -19 55 -19
50 0 55 -2 61 -25 6 -23 11 -25 59 -25 l53 0 13 -69 c6 -38 15 -75 19 -81 5
-8 40 -8 126 0 207 18 204 17 204 51 0 28 1 29 51 29 l52 0 -6 30 c-6 26 -4
30 16 31 12 0 57 4 100 8 43 3 80 4 82 1 1 -3 6 -24 10 -46 l6 -42 -50 -7
c-47 -6 -51 -9 -51 -35 l0 -28 -106 -7 -106 -7 6 -29 c5 -26 3 -29 -22 -29
-51 0 -71 -11 -74 -39 -2 -17 -9 -27 -23 -28 -11 -1 -55 -5 -97 -8 l-78 -7 0
-35 0 -36 55 6 c56 6 56 6 62 -24 5 -25 10 -30 27 -25 12 3 38 6 59 6 34 0 37
2 37 29 0 29 0 29 78 36 125 10 135 13 128 41 -8 29 -16 27 298 54 132 11 241
22 243 24 2 2 -3 32 -12 67 -23 99 -23 99 35 99 49 0 50 1 50 29 0 27 3 30 43
35 50 7 255 26 274 26 8 0 13 12 13 30 0 22 5 30 18 30 28 0 484 40 519 46 26
4 32 10 35 32 3 25 7 27 56 30 58 3 60 9 43 84 l-9 37 57 3 c54 3 56 4 56 30
-1 26 2 28 57 34 32 4 58 9 58 12 0 4 -12 69 -26 145 l-27 139 -61 -4 c-61 -3
-61 -3 -64 25 -3 24 -7 28 -25 23 -12 -3 -44 -6 -71 -6 -45 0 -48 -2 -43 -23
3 -12 9 -39 12 -59 l7 -37 -53 -3 c-50 -3 -54 -5 -57 -29 -3 -28 -23 -39 -73
-39 -21 0 -28 6 -33 26 -7 25 -10 26 -66 22 l-59 -3 -6 43 c-4 24 -5 46 -2 48
2 3 27 7 56 11 56 6 56 6 41 85 -23 112 -14 101 -79 94 l-58 -7 -7 53 c-4 29
-9 67 -12 84 l-6 32 -57 -5 -58 -6 -7 42 c-3 23 -4 46 -1 52 4 5 28 9 56 9 38
0 49 4 49 16 0 14 -14 118 -26 193 l-5 33 -58 -6 -58 -7 -6 52 c-4 28 -9 54
-11 57 -5 4 -252 -14 -309 -23 -24 -4 -28 -1 -34 26 -5 28 -8 30 -42 25 -20
-3 -71 -8 -113 -12 l-78 -6 0 25 c0 25 -3 26 -57 29 -44 2 -58 7 -58 18 0 11
13 16 45 18 25 2 49 7 54 12 5 5 5 34 1 66 l-7 57 -53 -6 c-53 -5 -54 -5 -60
23 -6 28 -7 28 -61 23 -53 -6 -54 -5 -54 21 0 25 -2 26 -55 26 -63 0 -61 -3
-70 94 l-7 68 -54 -4 c-54 -5 -54 -5 -54 24 l0 29 -55 -6 c-52 -7 -54 -6 -61
19 -6 24 -10 26 -60 26 -52 0 -54 1 -54 26 0 26 -1 27 -55 21 l-55 -6 0 39 c0
63 -6 70 -61 70 -55 0 -57 3 -61 100 l-3 55 -52 3 -52 3 -7 50 -7 49 -53 0
c-51 0 -54 1 -54 25 0 23 -3 25 -49 25 -44 0 -49 2 -55 26 -7 25 -9 26 -56 21
l-48 -6 -7 86 -8 85 -47 -5 c-47 -6 -48 -5 -54 24 -6 29 -6 30 -56 23 -49 -6
-50 -6 -50 20 0 25 -3 26 -49 26 -55 0 -61 7 -61 71 l0 40 -77 -6 c-43 -3 -88
-8 -100 -11 -20 -4 -23 0 -23 27 l0 30 -55 -6 -55 -7 0 57 0 57 -50 -4 -50 -3
0 57 0 57 -50 -6 -50 -6 0 44 c0 62 -9 71 -61 68 -42 -4 -44 -2 -47 24 -3 27
-5 28 -50 25 -45 -3 -47 -2 -50 24 -3 26 -5 27 -53 21 -48 -6 -49 -5 -49 21 0
24 -3 26 -45 26 -42 0 -45 2 -45 26 l0 27 -100 -7 -100 -7 0 26 c0 23 -3 25
-50 25 -47 0 -50 2 -50 25 0 23 -4 25 -45 25 -42 0 -45 2 -45 26 0 25 -2 26
-50 22 -49 -3 -50 -2 -50 25 0 28 -1 29 -47 25 l-48 -3 -3 53 -3 52 -45 0
c-41 0 -44 2 -44 26 l0 27 -97 -7 c-54 -4 -117 -9 -140 -12 l-43 -6 0 257 0
258 -45 -5 c-44 -5 -45 -5 -45 25 0 30 0 30 -45 24 -45 -7 -45 -6 -45 23 l0
30 -77 -6 c-43 -3 -84 -7 -90 -10 -9 -2 -13 7 -13 28 l0 31 -70 -7 c-39 -3
-102 -9 -140 -12 l-70 -7 0 28 0 28 -97 -7 c-54 -3 -135 -9 -180 -13 l-83 -6
0 27 c0 24 -3 26 -44 26 -41 0 -43 1 -38 25 4 24 2 25 -42 25 l-46 0 0 54 0
55 -89 -6 -89 -6 6 28 5 27 -92 -7 -91 -7 0 26 c0 24 -4 26 -40 26 -37 0 -40
2 -40 26 l0 27 -112 -7 c-62 -4 -121 -9 -130 -12 -15 -4 -18 1 -18 27 l0 32
-45 -5 c-44 -5 -45 -5 -45 25 0 29 -1 29 -40 24 -39 -5 -40 -4 -40 25 0 29 -1
30 -40 26 -38 -3 -40 -2 -40 25 0 27 -2 28 -42 26 -42 -3 -43 -2 -40 24 l3 28
-86 -7 -85 -7 0 28 0 28 -85 -6 -85 -6 0 30 c0 30 -1 31 -37 25 -21 -3 -77 -8
-125 -12 l-88 -6 0 26 c0 24 -4 26 -40 26 -37 0 -40 2 -40 26 l0 27 -81 -5
-81 -5 7 84 7 83 -41 0 c-37 0 -41 2 -41 25 0 23 -4 25 -40 25 -37 0 -40 2
-40 26 l0 27 -80 -5 -80 -5 0 29 0 30 -62 -7 c-78 -7 -701 -55 -723 -55 -10 0
-15 9 -15 26 l0 26 -75 -4 -75 -3 0 58 0 58 -35 -7 c-34 -6 -35 -5 -35 26 0
30 -1 31 -37 28 -37 -3 -38 -2 -35 26 4 28 3 28 -37 24 -39 -3 -41 -2 -41 25
l0 29 -92 -7 c-51 -3 -103 -8 -115 -11 -20 -4 -23 0 -23 26 0 28 -3 30 -35 30
-31 0 -35 3 -35 26 l0 27 -75 -7 -75 -7 0 32 c0 30 -1 31 -35 25 -34 -7 -35
-6 -35 25 0 31 -1 31 -36 26 l-37 -6 6 60 5 60 -39 -6 c-39 -7 -39 -6 -39 25
0 31 -2 32 -34 28 l-35 -4 6 83 6 83 -69 -1 c-38 -1 -140 -7 -227 -14z"/>
</g>
</svg>
