<?xml version="1.0" standalone="no"?>
<!DOCTYPE svg PUBLIC "-//W3C//DTD SVG 20010904//EN"
 "http://www.w3.org/TR/2001/REC-SVG-20010904/DTD/svg10.dtd">
<svg version="1.0" xmlns="http://www.w3.org/2000/svg"
 width="208.000000pt" height="269.000000pt" viewBox="0 0 208.000000 269.000000"
 preserveAspectRatio="xMidYMid meet">
<metadata>
Created by potrace 1.16, written by Peter Selinger 2001-2019
</metadata>
<g transform="translate(0.000000,269.000000) scale(0.100000,-0.100000)"
fill="#000000" stroke="none">
<path d="M1295 2670 c-71 -10 -131 -19 -131 -19 -1 -1 -4 -14 -7 -31 -7 -35
-2 -33 -200 -56 -135 -16 -148 -19 -152 -38 -2 -12 -10 -55 -17 -96 -13 -74
-13 -75 -45 -78 -30 -3 -32 -6 -38 -50 -11 -75 -14 -81 -51 -88 -29 -5 -34
-10 -34 -35 0 -24 -5 -29 -35 -35 -37 -7 -40 -12 -50 -86 -6 -46 -7 -48 -40
-48 l-33 0 -7 -63 c-7 -63 -7 -64 -44 -73 -29 -7 -37 -14 -39 -36 -3 -22 -10
-29 -38 -34 -24 -4 -34 -12 -34 -24 0 -26 -27 -50 -56 -50 -20 0 -24 -5 -24
-29 0 -29 -14 -41 -50 -41 -23 0 -24 -4 -52 -242 -22 -190 -24 -198 -45 -198
-39 0 -49 -23 -62 -145 -7 -64 -11 -119 -8 -121 4 -5 750 72 790 80 16 4 17
-1 11 -47 -7 -55 -16 -67 -51 -67 -17 0 -25 -8 -31 -32 -6 -25 -14 -34 -33
-36 -108 -11 -109 -12 -109 -41 0 -25 -5 -30 -34 -35 -27 -5 -35 -12 -39 -35
-5 -23 -13 -30 -42 -35 -31 -6 -35 -11 -35 -36 0 -24 -4 -30 -22 -30 -32 0
-45 -11 -49 -40 -3 -20 -11 -26 -36 -28 -38 -4 -40 -9 -49 -119 l-7 -83 32 0
c28 0 31 -3 31 -31 0 -29 2 -31 30 -27 27 4 30 2 30 -24 0 -23 4 -28 25 -28
27 0 626 66 686 75 l35 6 -7 -68 c-13 -113 -13 -113 21 -113 27 0 30 -3 30
-31 0 -30 1 -31 36 -24 36 6 36 6 29 -24 -6 -30 -6 -31 29 -31 32 0 36 -3 36
-25 0 -30 15 -31 170 -10 58 8 108 15 113 15 4 0 7 13 7 30 0 31 -7 28 104 45
27 5 35 11 39 35 5 24 13 30 42 36 30 5 35 10 35 34 0 24 5 29 35 34 29 6 37
12 42 36 4 24 12 31 39 36 29 5 34 10 34 34 0 29 15 40 54 40 21 0 23 6 34
114 7 62 15 134 18 160 l7 46 -36 0 c-35 0 -36 1 -30 30 3 17 2 30 -3 30 -5
-1 -53 -7 -106 -14 l-98 -12 0 28 c0 24 -4 28 -30 28 -25 0 -30 4 -30 25 0 21
-5 25 -30 25 -27 0 -30 3 -30 30 0 33 -1 33 -87 21 l-52 -7 6 29 6 30 -71 -6
-71 -6 6 30 6 30 -72 -7 -71 -7 0 27 c0 22 -4 26 -31 26 -30 0 -30 1 -25 43 4
23 31 234 61 469 30 235 75 567 100 737 25 171 45 313 45 316 0 3 11 5 24 5
31 0 56 25 56 56 0 22 -4 24 -47 23 -27 -1 -106 -10 -178 -19z"/>
</g>
</svg>
