<?xml version="1.0" standalone="no"?>
<!DOCTYPE svg PUBLIC "-//W3C//DTD SVG 20010904//EN"
 "http://www.w3.org/TR/2001/REC-SVG-20010904/DTD/svg10.dtd">
<svg version="1.0" xmlns="http://www.w3.org/2000/svg"
 width="421.000000pt" height="216.000000pt" viewBox="0 0 421.000000 216.000000"
 preserveAspectRatio="xMidYMid meet">
<metadata>
Created by potrace 1.16, written by Peter Selinger 2001-2019
</metadata>
<g transform="translate(0.000000,216.000000) scale(0.100000,-0.100000)"
fill="#efec82" stroke="none">
<path d="M748 2153 c-20 -3 -28 -11 -30 -31 -2 -22 -9 -28 -35 -30 -29 -3 -33
-7 -33 -31 0 -26 -4 -29 -46 -35 -26 -3 -68 -6 -94 -6 -45 0 -48 -2 -53 -30
-6 -25 -11 -30 -36 -30 -26 0 -30 -4 -33 -32 -3 -29 -7 -33 -35 -36 -29 -3
-33 -7 -33 -33 0 -27 -3 -29 -35 -29 -32 0 -35 -3 -35 -28 0 -23 -6 -30 -32
-37 -32 -10 -33 -12 -39 -75 -3 -36 -23 -261 -43 -500 -48 -568 -41 -520 -77
-520 -16 0 -29 -5 -29 -12 0 -7 -7 -94 -15 -193 -20 -242 -21 -225 15 -225 27
0 30 -3 30 -31 l0 -32 89 6 90 6 -2 -27 -2 -27 155 2 c85 1 215 5 288 8 l132
7 0 29 c0 26 3 29 35 29 32 0 35 2 35 30 0 17 4 30 9 30 5 0 17 3 27 7 15 6
16 0 9 -62 l-7 -68 61 6 61 5 0 -29 0 -28 95 6 95 6 0 -32 0 -32 60 7 60 7 0
-32 c0 -26 4 -31 23 -31 51 0 681 41 684 44 2 2 6 42 10 88 l6 85 60 7 c110
11 117 10 117 -24 l0 -30 60 0 c58 0 60 -1 60 -26 l0 -26 78 6 c42 4 101 9
130 12 l52 5 0 -32 0 -32 60 6 60 7 0 -30 c0 -22 5 -30 18 -30 42 0 977 76
1050 86 42 5 42 5 42 -27 l0 -32 48 6 c26 4 88 9 139 13 l92 7 3 31 c3 27 7
31 36 34 29 3 32 6 32 38 0 31 -2 34 -30 34 l-30 0 0 61 0 62 -30 -6 c-28 -6
-30 -4 -30 23 0 27 -3 30 -30 30 -25 0 -30 4 -30 25 0 21 -5 25 -30 25 -27 0
-30 3 -30 30 0 27 -3 30 -30 30 -25 0 -30 4 -30 25 0 22 -4 25 -35 25 -33 0
-34 1 -28 31 6 31 6 32 -30 27 -35 -4 -37 -2 -37 24 0 24 -4 28 -30 28 -27 0
-30 3 -30 31 0 29 -2 30 -30 24 -28 -6 -30 -5 -30 24 0 28 -3 31 -30 31 -27 0
-30 3 -30 31 0 29 -2 30 -30 24 -28 -6 -30 -5 -30 24 0 28 -3 31 -30 31 -27 0
-30 3 -30 30 0 29 -1 30 -37 26 -21 -3 -64 -8 -95 -11 -57 -5 -58 -5 -58 20 0
22 4 25 35 25 32 0 35 3 35 29 0 29 14 41 51 41 14 0 19 7 19 29 0 26 4 30 32
33 28 3 34 8 38 33 4 25 10 31 36 33 37 4 29 -40 70 389 15 161 26 295 23 297
-2 3 -64 0 -136 -6 l-131 -11 -7 -33 c-5 -30 -10 -34 -36 -34 -25 0 -30 -5
-35 -30 -5 -24 -13 -31 -40 -36 -29 -5 -34 -10 -34 -35 0 -25 -4 -29 -26 -29
-30 0 -29 -21 -8 180 l7 60 -32 0 c-28 0 -31 3 -31 31 0 30 -1 30 -42 25 -53
-7 -506 -41 -853 -64 l-260 -18 -3 28 c-3 27 -5 28 -64 28 l-60 0 7 63 c3 34
9 75 12 91 l5 29 -93 -6 c-52 -4 -156 -10 -231 -13 -123 -6 -138 -9 -138 -25
0 -41 -11 -49 -66 -49 -53 0 -54 0 -54 30 l0 31 -90 -7 -90 -7 0 32 0 32 -123
-7 -124 -7 5 32 c4 31 4 31 -39 30 -24 -1 -56 -4 -71 -6z m-432 -687 c8 -8 14
-22 14 -32 0 -9 10 -25 22 -36 19 -16 20 -22 10 -38 -7 -11 -12 -24 -12 -30 0
-13 -39 -51 -66 -65 -10 -5 -38 -9 -61 -7 -40 3 -43 5 -43 33 0 36 15 53 53
63 25 6 39 26 17 26 -20 0 -9 50 15 75 30 29 32 30 51 11z m124 -773 c3 -3 -1
-8 -7 -10 -7 -3 -13 -16 -13 -29 0 -14 -15 -40 -35 -61 -19 -20 -35 -45 -35
-55 0 -11 -7 -18 -18 -18 -21 0 -62 32 -62 48 0 6 -5 12 -12 14 -7 3 10 30 42
67 54 61 56 62 95 56 21 -3 42 -9 45 -12z"/>
</g>
</svg>
